<?xml version='1.0' encoding='utf-8'?>
<svg xmlns="http://www.w3.org/2000/svg" xmlns:xlink="http://www.w3.org/1999/xlink" width="1024px" height="1024px" viewBox="0 0 1024 1024" version="1.1">
    <title>Icon Light</title>
    <defs>
        <linearGradient x1="50%" y1="0%" x2="50%" y2="100%" id="linearGradient-1">
            <stop stop-color="#69E08C" offset="0%" />
            <stop stop-color="#00C79B" offset="100%" />
        </linearGradient>
        <path d="M0,0 L1024,0 L1024,1024 L0,1024 Z" id="path-2" />
        <path d="M683.875968,186.169669 C686.420826,186.980972 692.661621,188.021105 696.357559,191.023621 C700.053497,194.026137 701.676104,196.570995 706.065463,204.198634 C710.454823,211.826272 717.971514,226.041418 722.707584,236.789454 C727.443655,247.537491 730.217341,253.431575 734.495753,268.686853 C738.774165,283.942131 745.014961,308.094009 748.364188,328.32112 C751.713415,348.548232 753.682732,367.270618 754.604983,390.035653 C755.527234,412.800688 755.645116,440.308727 753.911561,464.925198 C752.178007,489.541669 748.82878,515.198272 744.203657,537.734478 C739.578535,560.270684 733.337739,581.073335 726.174693,600.142432 C719.011646,619.211529 710.343875,636.42919 701.211511,652.149061 C692.079147,667.868931 680.526741,683.124209 671.394377,694.447785 C662.262013,705.771362 655.445678,712.130039 646.431196,720.104389 C637.416713,728.078738 627.015388,735.935206 617.307484,742.293884 C607.59958,748.652561 598.702979,753.506513 588.183772,758.242583 C577.664564,762.978653 567.152291,767.374947 554.206108,770.724174 C509.480407,782.859054 460.940887,787.019584 417.255319,778.005102 C390.905294,772.457728 369.409221,759.282716 354.847365,775.924837 C339.592087,793.26038 323.643388,811.289344 307.001267,830.01173 C299.150459,839.011436 285.490418,839.942802 276.490712,832.091995 C267.491006,824.241187 266.559639,810.581147 274.410446,801.58144 C286.892037,787.019584 300.06705,772.457728 312.54864,757.895872 C320.869701,748.187968 320.869701,738.480064 313.935484,725.998473 C307.001267,713.516882 301.453893,705.195822 299.026917,699.995159 C293.479543,689.247122 291.052567,682.084076 287.93217,672.25829 C284.811772,662.432505 282.155967,654.000497 280.304531,641.054313 C278.453095,628.10813 276.144,611.930601 276.837422,594.595058 C277.530844,577.259516 281.226782,552.525163 284.465061,537.041056 C287.70334,521.556949 291.628107,512.889178 296.25323,501.676549 C300.878353,490.46392 303.880869,482.725333 312.20193,469.77915 C320.52299,456.832967 336.936282,435.108064 346.179594,424.013317 C355.422905,412.918569 359.236724,410.262764 367.675667,403.210665 C376.114609,396.158567 383.971077,389.342231 396.799379,381.714592 C409.62768,374.086953 422.684811,366.577196 444.645477,357.444832 C466.606143,348.312468 505.895417,337.106773 528.549504,326.934277 C551.203592,316.76178 564.142841,308.558601 580.556133,296.423721 C596.969425,284.288841 615.691811,265.795284 627.015388,254.124997 C638.338964,242.454709 642.041836,236.213914 648.511461,226.388128 C654.981085,216.562343 661.915303,201.424947 665.847004,195.184151 C669.778705,188.943356 669.542941,190.448081 672.087799,188.943356 C674.632657,187.438631 679.139898,186.634262 681.102281,186.169669 C683.064665,185.705076 681.331111,185.358366 683.875968,186.169669 Z" id="path-3" />
        <filter x="-14.0%" y="-9.9%" width="128.0%" height="120.9%" filterUnits="objectBoundingBox" id="filter-4">
            <feMorphology radius="0.85" operator="dilate" in="SourceAlpha" result="shadowSpreadOuter1" />
            <feOffset dx="0" dy="3.4" in="shadowSpreadOuter1" result="shadowOffsetOuter1" />
            <feGaussianBlur stdDeviation="21.25" in="shadowOffsetOuter1" result="shadowBlurOuter1" />
            <feComposite in="shadowBlurOuter1" in2="SourceAlpha" operator="out" result="shadowBlurOuter1" />
            <feColorMatrix values="0 0 0 0 0   0 0 0 0 0   0 0 0 0 0  0 0 0 0.15 0" type="matrix" in="shadowBlurOuter1" />
        </filter>
        <filter x="-9.6%" y="-6.7%" width="119.2%" height="114.3%" filterUnits="objectBoundingBox" id="filter-5">
            <feGaussianBlur stdDeviation="0.85" in="SourceAlpha" result="shadowBlurInner1" />
            <feOffset dx="0" dy="3.4" in="shadowBlurInner1" result="shadowOffsetInner1" />
            <feComposite in="shadowOffsetInner1" in2="SourceAlpha" operator="arithmetic" k2="-1" k3="1" result="shadowInnerInner1" />
            <feColorMatrix values="0 0 0 0 1   0 0 0 0 1   0 0 0 0 1  0 0 0 0.25 0" type="matrix" in="shadowInnerInner1" />
        </filter>
    </defs>
    <g id="Icon-Light" stroke="none" fill="none" xlink:href="#path-2">
        <use fill="url(#linearGradient-1)" fill-rule="evenodd" xlink:href="#path-2" />
        <g id="路径">
            <use fill="black" fill-opacity="1" filter="url(#filter-4)" xlink:href="#path-3" />
            <use fill-opacity="0.85" fill="#FFFFFF" fill-rule="evenodd" xlink:href="#path-3" />
            <use fill="black" fill-opacity="1" filter="url(#filter-5)" xlink:href="#path-3" />
        </g>
        <g id="文字" stroke-width="1" fill-rule="evenodd" transform="translate(402.35, 511.15)" fill="#000000" fill-opacity="0.1">
            <path d="M23.8,0 L196.35,0 C204.680781,0 208.846172,0 212.028109,1.62127795 C217.012024,4.16070945 220.15,9.2814215 220.15,14.875 C220.15,20.4685785 217.012024,25.5892905 212.028109,28.128722 C208.846172,29.75 204.680781,29.75 196.35,29.75 L23.8,29.75 C15.469219,29.75 11.3038285,29.75 8.12189132,28.128722 C3.13797638,25.5892905 0,20.4685785 0,14.875 C0,9.2814215 3.13797638,4.16070945 8.12189132,1.62127795 C11.3038285,0 15.469219,0 23.8,0 Z" id="矩形" />
            <path d="M23.8,56.95 L136.85,56.95 C145.180781,56.95 149.346172,56.95 152.528109,58.571278 C157.512024,61.1107095 160.65,66.2314215 160.65,71.825 C160.65,77.4185785 157.512024,82.5392905 152.528109,85.078722 C149.346172,86.7 145.180781,86.7 136.85,86.7 L23.8,86.7 C15.469219,86.7 11.3038285,86.7 8.12189132,85.078722 C3.13797638,82.5392905 0,77.4185785 0,71.825 C0,66.2314215 3.13797638,61.1107095 8.12189132,58.571278 C11.3038285,56.95 15.469219,56.95 23.8,56.95 Z" id="矩形-2" />
            <path d="M23.8,113.9 L136.85,113.9 C145.180781,113.9 149.346172,113.9 152.528109,115.521278 C157.512024,118.060709 160.65,123.181421 160.65,128.775 C160.65,134.368579 157.512024,139.489291 152.528109,142.028722 C149.346172,143.65 145.180781,143.65 136.85,143.65 L23.8,143.65 C15.469219,143.65 11.3038285,143.65 8.12189132,142.028722 C3.13797638,139.489291 0,134.368579 0,128.775 C0,123.181421 3.13797638,118.060709 8.12189132,115.521278 C11.3038285,113.9 15.469219,113.9 23.8,113.9 Z" id="矩形-3" />
        </g>
    </g>
</svg>